<svg width="382" height="445" viewBox="0 0 382 445" fill="none" xmlns="http://www.w3.org/2000/svg">
<g opacity="0.3" filter="url(#filter0_ii_14471_6561)">
<path d="M163.438 271.275H235.964L272.423 318.259L308.292 360.111L375.891 445H296.27L249.759 387.75L225.912 353.794L163.438 271.275ZM382 209.681C382 253.77 373.657 291.279 356.971 322.208C340.416 353.136 317.817 376.76 289.175 393.08C260.664 409.268 228.606 417.362 193 417.362C157.131 417.362 124.942 409.202 96.4306 392.882C67.9197 376.563 45.3869 352.939 28.8321 322.01C12.2774 291.082 4 253.639 4 209.681C4 165.592 12.2774 128.083 28.8321 97.1542C45.3869 66.2258 67.9197 42.6676 96.4306 26.4795C124.942 10.1598 157.131 2 193 2C228.606 2 260.664 10.1598 289.175 26.4795C317.817 42.6676 340.416 66.2258 356.971 97.1542C373.657 128.083 382 165.592 382 209.681ZM295.482 209.681C295.482 181.122 291.212 157.037 282.672 137.427C274.263 117.817 262.372 102.945 247 92.8111C231.628 82.6771 213.628 77.6101 193 77.6101C172.372 77.6101 154.372 82.6771 139 92.8111C123.628 102.945 111.672 117.817 103.131 137.427C94.7226 157.037 90.5182 181.122 90.5182 209.681C90.5182 238.24 94.7226 262.325 103.131 281.935C111.672 301.545 123.628 316.417 139 326.551C154.372 336.685 172.372 341.752 193 341.752C213.628 341.752 231.628 336.685 247 326.551C262.372 316.417 274.263 301.545 282.672 281.935C291.212 262.325 295.482 238.24 295.482 209.681Z" fill="url(#paint0_linear_14471_6561)"/>
</g>
<g filter="url(#filter1_ii_14471_6561)">
<path d="M159.438 269.275H231.964L268.423 316.259L304.292 358.111L371.891 443H292.27L245.759 385.75L221.912 351.794L159.438 269.275ZM378 207.681C378 251.77 369.657 289.279 352.971 320.208C336.416 351.136 313.817 374.76 285.175 391.08C256.664 407.268 224.606 415.362 189 415.362C153.131 415.362 120.942 407.202 92.4306 390.882C63.9197 374.563 41.3869 350.939 24.8321 320.01C8.27737 289.082 0 251.639 0 207.681C0 163.592 8.27737 126.083 24.8321 95.1542C41.3869 64.2258 63.9197 40.6676 92.4306 24.4795C120.942 8.15984 153.131 0 189 0C224.606 0 256.664 8.15984 285.175 24.4795C313.817 40.6676 336.416 64.2258 352.971 95.1542C369.657 126.083 378 163.592 378 207.681ZM291.482 207.681C291.482 179.122 287.212 155.037 278.672 135.427C270.263 115.817 258.372 100.945 243 90.8111C227.628 80.6771 209.628 75.6101 189 75.6101C168.372 75.6101 150.372 80.6771 135 90.8111C119.628 100.945 107.672 115.817 99.1314 135.427C90.7226 155.037 86.5182 179.122 86.5182 207.681C86.5182 236.24 90.7226 260.325 99.1314 279.935C107.672 299.545 119.628 314.417 135 324.551C150.372 334.685 168.372 339.752 189 339.752C209.628 339.752 227.628 334.685 243 324.551C258.372 314.417 270.263 299.545 278.672 279.935C287.212 260.325 291.482 236.24 291.482 207.681Z" fill="url(#paint1_linear_14471_6561)"/>
</g>
<defs>
<filter id="filter0_ii_14471_6561" x="4" y="-22" width="386" height="489" filterUnits="userSpaceOnUse" color-interpolation-filters="sRGB">
<feFlood flood-opacity="0" result="BackgroundImageFix"/>
<feBlend mode="normal" in="SourceGraphic" in2="BackgroundImageFix" result="shape"/>
<feColorMatrix in="SourceAlpha" type="matrix" values="0 0 0 0 0 0 0 0 0 0 0 0 0 0 0 0 0 0 127 0" result="hardAlpha"/>
<feOffset dy="-24"/>
<feGaussianBlur stdDeviation="15"/>
<feComposite in2="hardAlpha" operator="arithmetic" k2="-1" k3="1"/>
<feColorMatrix type="matrix" values="0 0 0 0 0 0 0 0 0 0 0 0 0 0 0 0 0 0 0.6 0"/>
<feBlend mode="normal" in2="shape" result="effect1_innerShadow_14471_6561"/>
<feColorMatrix in="SourceAlpha" type="matrix" values="0 0 0 0 0 0 0 0 0 0 0 0 0 0 0 0 0 0 127 0" result="hardAlpha"/>
<feOffset dx="8" dy="22"/>
<feGaussianBlur stdDeviation="20"/>
<feComposite in2="hardAlpha" operator="arithmetic" k2="-1" k3="1"/>
<feColorMatrix type="matrix" values="0 0 0 0 1 0 0 0 0 1 0 0 0 0 1 0 0 0 0.6 0"/>
<feBlend mode="normal" in2="effect1_innerShadow_14471_6561" result="effect2_innerShadow_14471_6561"/>
</filter>
<filter id="filter1_ii_14471_6561" x="0" y="-24" width="386" height="489" filterUnits="userSpaceOnUse" color-interpolation-filters="sRGB">
<feFlood flood-opacity="0" result="BackgroundImageFix"/>
<feBlend mode="normal" in="SourceGraphic" in2="BackgroundImageFix" result="shape"/>
<feColorMatrix in="SourceAlpha" type="matrix" values="0 0 0 0 0 0 0 0 0 0 0 0 0 0 0 0 0 0 127 0" result="hardAlpha"/>
<feOffset dy="-24"/>
<feGaussianBlur stdDeviation="15"/>
<feComposite in2="hardAlpha" operator="arithmetic" k2="-1" k3="1"/>
<feColorMatrix type="matrix" values="0 0 0 0 0 0 0 0 0 0 0 0 0 0 0 0 0 0 0.6 0"/>
<feBlend mode="normal" in2="shape" result="effect1_innerShadow_14471_6561"/>
<feColorMatrix in="SourceAlpha" type="matrix" values="0 0 0 0 0 0 0 0 0 0 0 0 0 0 0 0 0 0 127 0" result="hardAlpha"/>
<feOffset dx="8" dy="22"/>
<feGaussianBlur stdDeviation="20"/>
<feComposite in2="hardAlpha" operator="arithmetic" k2="-1" k3="1"/>
<feColorMatrix type="matrix" values="0 0 0 0 1 0 0 0 0 1 0 0 0 0 1 0 0 0 0.6 0"/>
<feBlend mode="normal" in2="effect1_innerShadow_14471_6561" result="effect2_innerShadow_14471_6561"/>
</filter>
<linearGradient id="paint0_linear_14471_6561" x1="180" y1="2" x2="193" y2="452.5" gradientUnits="userSpaceOnUse">
<stop stop-color="white"/>
<stop offset="0.276042" stop-color="#FF6E05" stop-opacity="0.33"/>
<stop offset="0.484375" stop-color="#8EFB4B" stop-opacity="0.29"/>
<stop offset="0.739583" stop-color="#3F5AE4" stop-opacity="0.32"/>
<stop offset="1" stop-color="#DB00FF" stop-opacity="0.59"/>
</linearGradient>
<linearGradient id="paint1_linear_14471_6561" x1="176" y1="4.50272e-06" x2="189" y2="450.5" gradientUnits="userSpaceOnUse">
<stop stop-color="#F01717"/>
<stop offset="0.229167" stop-color="#FF6E05"/>
<stop offset="0.484375" stop-color="#8EFB4B"/>
<stop offset="0.765625" stop-color="#3F5AE4"/>
<stop offset="1" stop-color="#DB00FF"/>
</linearGradient>
</defs>
</svg>
