<svg id="Layer_1" data-name="Layer 1" xmlns="http://www.w3.org/2000/svg" viewBox="0 0 563.5 428.4"><defs><style>.cls-1{fill:#383278;}.cls-1,.cls-2,.cls-3{fill-rule:evenodd;}.cls-2{fill:#ed721d;}.cls-3{fill:#252422;}.cls-4{fill:none;stroke:#000;stroke-miterlimit:10;stroke-width:4.2px;}.cls-5{isolation:isolate;font-size:26.4px;font-family:Arial-Black, Arial;font-weight:800;}</style></defs><g id="Layer_1-2" data-name="Layer_1"><path class="cls-1" d="M116.9,331c0,8,.2,15,.9,23.1.1,1.3,1.4,16.4,1.8,17.9l.6,1.3c6-58.1,22.7-102.4,55.4-143.2,3.6-4.5,14.5-16.8,18.5-20.7,3.6-3.4,8.2-7.8,11.9-10.9,4-3.2,7.7-6.8,12.2-10.2,18.8-14.1,24.3-17.4,44.6-29.2.9-7.3.6-15.8,1.2-23.5s1.3-15,2.3-22.4c2.1-15.7,4.8-25.7,9.1-40.4C251,86.1,233.5,99,213.6,116.3c-2.4,2.1-4.5,4-6.8,6.2l-9.9,9.9c-11.3,11.2-23.2,27-32.1,40-13.4,19.4-25.9,44.9-33.9,69.9a290,290,0,0,0-14,88.7Z" transform="translate(-5.7 -2.2)"/><path class="cls-1" d="M151.2,348.6l-2.6,20.2c37.8,2.7,62.7,4.8,101.2-1.9,27-4.7,63-15.8,76.6-30,14-14.5,18.1-31.6,3.6-48.9-18.2-21.8-67-17.3-93.9-11.2l-21.7,5c-.2-1.9.9-1.9,4.1-3.8,1.9-1,3.4-1.8,5.4-2.8a123.53,123.53,0,0,1,11.6-5.3c18.6-7.1,38.2-9.9,58.3-6.2,6.6,1.2,19.1,4.6,26.7,6.4,1.7-1.8,2.4-17.3,2.7-20.6-5.5-3.1-22.2-6.6-29.7-7.7a132.56,132.56,0,0,0-35.6-.3c-24.8,3.1-61,18-76.4,34.9-4.8,5.3-11.9,17.5-4.1,24.8,6.8,6.2,21.2,5.3,31.5,3.7,23-3.5,41.8-7.8,65.7-9.9,11-.9,24.8-2.3,32.6,3.4,2.9,2.2,6.3,5.6,7.2,10.9,1.2,6.8-1.9,9.4-5.3,12.3-23.1,20-87.8,28.2-121.4,28.7q-9.45.15-18.9-.3c-5.9-.3-11.9-1.2-17.6-1.4Z" transform="translate(-5.7 -2.2)"/><path class="cls-2" d="M170.7,262c15.3-15.3,13-14,32.5-30.6C226,212.2,259.6,196,290,190.2c23.3-4.5,37.8-3.5,61.3-3.5l11.2-13c4.6-5.3,12.5-13.4,17.9-18.6,4.8-4.6,14.2-12.7,19.4-17.4-60.5-1.3-116.6,16.1-162.6,49-6.7,4.8-12.2,9.6-18.3,14.6-2,1.7-11.7,10.9-13.8,13.4-11.3,12.8-16.4,18-26.5,33.6-2.2,3.4-6.7,10.2-7.9,13.7Z" transform="translate(-5.7 -2.2)"/><path class="cls-1" d="M240,219.9c3.9-.6,8.9-2.4,13.2-3.3a184.18,184.18,0,0,1,47.5-3.8c27.2,1.3,56.4,9.1,78.2,22.5,3.8,2.3,6.6,4.2,10.2,6.6l6.8,5.4c3,3,4.7.2,15-3,4.5-1.4,8.6-2.6,13.2-3.8,10.5-2.7,18.4-3.5,29.1-5-.9-1-3.2-2.4-4.5-3.5-10.7-8-26.5-16.1-38.9-21.3-36.2-15.3-80.9-18.3-119.7-9.5-16.2,3.7-38.2,11.3-50.1,18.7Z" transform="translate(-5.7 -2.2)"/><path class="cls-2" d="M399.8,310.7c13.9,1.7,27.1,8.1,39.2,13.8-1.2-5.4-5.1-13.7-7.4-18.6-10.5-22.9-27.9-43.4-49.8-56.4a128.5,128.5,0,0,0-38.5-15.3L320,229.7c6.2,1.5,22.2,8.9,28.1,12.4,17.5,10.7,29.9,23.6,39.7,40.8,4,6.6,10.3,19.6,12,27.8Z" transform="translate(-5.7 -2.2)"/><path class="cls-1" d="M389.2,375.2l1.2-3.1c7.8-30.6,6.6-52.8-10.4-80.9-4.4-7.2-10.1-13.4-16-19.4,2,5.3,6.9,11.4,11.2,23.4,3.3,9.4,4.2,20.1,3.4,30.7a122.38,122.38,0,0,1-3.9,21.6c-1.9,7.4-2,2.5,7.7,16.6Z" transform="translate(-5.7 -2.2)"/><path class="cls-2" d="M77.4,421.4l-5.3-22.1h5.4l1.7,9.1c.5,2.7.9,5.5,1.3,7.7h.1c.4-2.4.9-5,1.4-7.8l1.9-9h5.3l1.8,9.3c.5,2.6.9,5,1.2,7.4h.1c.4-2.4.8-5,1.3-7.7l1.8-9h5.1l-5.8,22.1H89.3l-1.9-9.5c-.4-2.2-.8-4.3-1.1-6.8h-.1c-.4,2.4-.7,4.6-1.2,6.8l-2.1,9.5Z" transform="translate(-5.7 -2.2)"/><path class="cls-2" d="M111.2,411.6c0-1.2-.5-3.2-2.8-3.2a3.25,3.25,0,0,0-3.1,3.2Zm-5.9,3.4c.2,2.1,2.2,3.1,4.5,3.1a15.81,15.81,0,0,0,4.5-.6l.6,3.4a17.65,17.65,0,0,1-5.8.9c-5.4,0-8.6-3.1-8.6-8.1,0-4.1,2.5-8.6,8.1-8.6,5.2,0,7.1,4,7.1,8,0,.9-.1,1.6-.1,1.9Z" transform="translate(-5.7 -2.2)"/><path class="cls-2" d="M141.9,420.8a13.79,13.79,0,0,1-5.7.9c-7.6,0-11.6-4.8-11.6-11,0-7.6,5.4-11.7,12.1-11.7a15.33,15.33,0,0,1,5.5.9l-1.1,4a11.16,11.16,0,0,0-4.2-.8c-4,0-7.1,2.4-7.1,7.3,0,4.4,2.7,7.2,7.1,7.2a14.47,14.47,0,0,0,4.1-.7Z" transform="translate(-5.7 -2.2)"/><path class="cls-2" d="M159.4,416.2c0,2.1.1,3.8.1,5.2h-4.3l-.2-2.3h-.1a5.63,5.63,0,0,1-5,2.7c-3.3,0-5.7-2-5.7-7v-9.4h5V414c0,2.3.7,3.7,2.5,3.7a2.36,2.36,0,0,0,2.4-1.7,3.59,3.59,0,0,0,.2-1.1v-9.6h5v10.9Z" transform="translate(-5.7 -2.2)"/><polygon class="cls-2" points="157.8 395.9 162.7 395.9 162.7 419.2 157.8 419.2 157.8 395.9"/><path class="cls-2" d="M178.1,400.8v4.6h3.6v3.7h-3.6v5.8c0,1.9.4,2.8,1.9,2.8.6,0,1.2-.1,1.5-.1v3.7a8.54,8.54,0,0,1-3.2.4,4.67,4.67,0,0,1-3.7-1.4c-.9-.9-1.4-2.4-1.4-4.8V409H171v-3.7h2.2v-3.5Z" transform="translate(-5.7 -2.2)"/><path class="cls-2" d="M184.6,421.4V405.3h5v16.1Zm5.1-20.5a2.47,2.47,0,0,1-2.7,2.5,2.44,2.44,0,0,1-2.6-2.5,2.39,2.39,0,0,1,2.6-2.5A2.47,2.47,0,0,1,189.7,400.9Z" transform="translate(-5.7 -2.2)"/><path class="cls-2" d="M197.2,405.4l2.2,7.4a32.37,32.37,0,0,1,.9,4h.1c.3-1.4.6-2.5.9-4l2-7.4h5.3l-6,16.1h-5l-5.8-16.1Z" transform="translate(-5.7 -2.2)"/><path class="cls-2" d="M219.3,413.9c-2.7-.1-4.7.6-4.7,2.5a1.84,1.84,0,0,0,1.9,1.9,2.65,2.65,0,0,0,2.6-1.8,2.77,2.77,0,0,0,.1-.9v-1.7Zm.5,7.5-.3-1.6h-.1a5.94,5.94,0,0,1-4.6,1.9,5,5,0,0,1-5.2-5c0-4.1,3.7-6.1,9.4-6.1v-.2c0-.9-.4-2.1-2.9-2.1a9.94,9.94,0,0,0-4.5,1.2l-.9-3.2a13.91,13.91,0,0,1,6.3-1.4c5.3,0,7.1,3.2,7.1,6.9v5.6a38.44,38.44,0,0,0,.2,3.9h-4.5Z" transform="translate(-5.7 -2.2)"/><path class="cls-2" d="M233.4,400.8v4.6h3.5v3.7h-3.5v5.8c0,1.9.4,2.8,1.9,2.8.6,0,1.2-.1,1.5-.1v3.7a8.88,8.88,0,0,1-3.2.4,4.67,4.67,0,0,1-3.7-1.4c-.9-.9-1.4-2.4-1.4-4.8V409h-2.2v-3.7h2.2v-3.5Z" transform="translate(-5.7 -2.2)"/><path class="cls-2" d="M249.4,411.6c0-1.2-.5-3.2-2.8-3.2a3.25,3.25,0,0,0-3.1,3.2Zm-5.9,3.4c.1,2.1,2.2,3.1,4.5,3.1a15.81,15.81,0,0,0,4.5-.6l.6,3.4a17.23,17.23,0,0,1-5.8.9c-5.4,0-8.6-3.1-8.6-8.1,0-4.1,2.6-8.6,8.1-8.6,5.2,0,7.1,4,7.1,8,0,.9-.1,1.6-.1,1.9Z" transform="translate(-5.7 -2.2)"/><path class="cls-2" d="M267.4,405.4l2.4,7.8c.3,1,.6,2.2.8,3h.1c.2-.9.4-2.1.7-3l1.9-7.8h5.3L274.9,416c-2.3,6.3-3.8,8.9-5.6,10.5a9.55,9.55,0,0,1-4.8,2.2l-1.1-4.2a6.38,6.38,0,0,0,2.2-.9,5.74,5.74,0,0,0,2.1-2,2.12,2.12,0,0,0,.3-.7c0-.1-.1-.4-.2-.8l-5.9-14.7Z" transform="translate(-5.7 -2.2)"/><path class="cls-2" d="M284.5,413.4c0,2.7,1.2,4.8,3.3,4.8,1.9,0,3.2-1.9,3.2-4.8,0-2.4-.9-4.8-3.2-4.8S284.5,411,284.5,413.4Zm11.7-.2a8.15,8.15,0,0,1-8.5,8.6c-4.7,0-8.3-3.1-8.3-8.3s3.4-8.5,8.6-8.5A7.88,7.88,0,0,1,296.2,413.2Z" transform="translate(-5.7 -2.2)"/><path class="cls-2" d="M314.4,416.2c0,2.1.1,3.8.1,5.2h-4.3l-.3-2.3h-.1a5.77,5.77,0,0,1-5,2.7c-3.2,0-5.6-2-5.6-7v-9.4h5V414c0,2.3.7,3.7,2.4,3.7a2.59,2.59,0,0,0,2.5-1.7,3.75,3.75,0,0,0,.1-1.1v-9.6h5v10.9Z" transform="translate(-5.7 -2.2)"/><path class="cls-2" d="M318.4,410.6c0-2.4-.1-3.9-.1-5.3h4.2l.2,3h.1a4.63,4.63,0,0,1,4.3-3.3,3.4,3.4,0,0,1,1,.1v4.7a5.28,5.28,0,0,0-1.3-.1,3.33,3.33,0,0,0-3.5,2.5,4.48,4.48,0,0,0-.1,1.2v8.1h-5V410.6Z" transform="translate(-5.7 -2.2)"/><path class="cls-2" d="M342.4,412.1h0a19.92,19.92,0,0,0,1.2-1.9l3.2-4.8h6l-5.8,6.5,6.6,9.6h-6.1l-3.9-6.6-1.3,1.6v5h-5V398.2h5v13.9Z" transform="translate(-5.7 -2.2)"/><path class="cls-2" d="M355.6,410.5c0-2-.1-3.7-.1-5.1h4.3l.2,2.2h.1a5.63,5.63,0,0,1,4.9-2.5c3.3,0,5.8,2.2,5.8,6.9v9.5h-5v-8.9c0-2-.7-3.5-2.5-3.5a2.52,2.52,0,0,0-2.5,1.9,4.3,4.3,0,0,0-.2,1.2v9.3h-5v-11Z" transform="translate(-5.7 -2.2)"/><path class="cls-2" d="M379.1,413.4c0,2.7,1.2,4.8,3.2,4.8s3.2-1.9,3.2-4.8c0-2.4-.9-4.8-3.2-4.8S379.1,411,379.1,413.4Zm11.6-.2a8.15,8.15,0,0,1-8.5,8.6c-4.7,0-8.3-3.1-8.3-8.3s3.4-8.5,8.6-8.5A7.82,7.82,0,0,1,390.7,413.2Z" transform="translate(-5.7 -2.2)"/><path class="cls-2" d="M397,405.4l1.2,6.6a45.07,45.07,0,0,1,.9,5.3h.1c.4-1.8.8-3.7,1.2-5.2l1.7-6.6h4l1.6,6.4c.4,1.8.9,3.6,1.2,5.4h.1c.2-1.8.5-3.6.9-5.5l1.4-6.3h4.8l-4.9,16.1h-4.7l-1.5-5.7a44,44,0,0,1-1-5h-.1a28.79,28.79,0,0,1-1.1,5l-1.6,5.7h-4.7l-4.7-16.1H397Z" transform="translate(-5.7 -2.2)"/><polygon class="cls-2" points="412.7 395.9 417.7 395.9 417.7 419.2 412.7 419.2 412.7 395.9"/><path class="cls-2" d="M437.1,411.6c0-1.2-.5-3.2-2.8-3.2a3.25,3.25,0,0,0-3.1,3.2Zm-5.8,3.4c.1,2.1,2.2,3.1,4.5,3.1a15.81,15.81,0,0,0,4.5-.6l.6,3.4a17.23,17.23,0,0,1-5.8.9c-5.4,0-8.6-3.1-8.6-8.1,0-4.1,2.6-8.6,8.1-8.6,5.2,0,7.1,4,7.1,8,0,.9-.1,1.6-.1,1.9Z" transform="translate(-5.7 -2.2)"/><path class="cls-2" d="M455.3,412.1c0-.2-.1-.6-.1-.9a2.94,2.94,0,0,0-3-2.4c-2.2,0-3.5,2-3.5,4.5,0,2.7,1.4,4.5,3.5,4.5a3,3,0,0,0,2.9-2.4,4.48,4.48,0,0,0,.1-1.2v-2.1Zm5-14v18.5c0,1.8.1,3.7.1,4.8H456l-.2-2.4h-.1a5.61,5.61,0,0,1-5,2.7c-3.7,0-6.8-3.2-6.8-8.3,0-5.4,3.4-8.5,7.2-8.5,1.9,0,3.5.6,4.2,1.8h.1V398h4.9Z" transform="translate(-5.7 -2.2)"/><path class="cls-2" d="M474.6,411.9c0-.4-.1-.6-.1-.9a2.77,2.77,0,0,0-2.7-2.2c-1.8,0-3.3,1.7-3.3,4.6,0,2.4,1.2,4.2,3.3,4.2a2.7,2.7,0,0,0,2.6-2,5.9,5.9,0,0,0,.2-1.4Zm5.1-6.5c-.1,1-.1,2.4-.1,4.8v8.9c0,3.1-.6,5.6-2.4,7.3a10.08,10.08,0,0,1-6.6,1.9,13.05,13.05,0,0,1-5.8-1.2l1-3.8a9.79,9.79,0,0,0,4.7,1.2c2.3,0,4.1-1.3,4.1-4.2v-1h0a5.1,5.1,0,0,1-4.4,2.1c-4,0-6.8-3.2-6.8-7.8,0-5.2,3.3-8.4,7.3-8.4a4.8,4.8,0,0,1,4.4,2.2h.1l.1-1.9h4.4Z" transform="translate(-5.7 -2.2)"/><path class="cls-2" d="M493.2,411.6c0-1.2-.5-3.2-2.8-3.2a3.25,3.25,0,0,0-3.1,3.2Zm-5.8,3.4c.1,2.1,2.2,3.1,4.5,3.1a14.63,14.63,0,0,0,4.4-.6l.6,3.4a16.83,16.83,0,0,1-5.8.9c-5.5,0-8.6-3.1-8.6-8.1,0-4.1,2.5-8.6,8.1-8.6,5.2,0,7.2,4,7.2,8a7.13,7.13,0,0,1-.2,1.9Z" transform="translate(-5.7 -2.2)"/><path class="cls-3" d="M63.2,363.5a28.75,28.75,0,0,0-.6-15c-1.9-5.6-5.6-7.7-9.7-6.3s-5.3,4.7-5.8,12.1c-.6,10.3-4.5,18.1-13.6,21.2-10.8,3.6-21.6-1.4-25.9-14.2a32.16,32.16,0,0,1-1.9-10.6,19.06,19.06,0,0,1,.4-4.3l12.5-1.2a24,24,0,0,0,.8,12.4c1.8,5.3,5.5,6.9,8.8,5.8,4-1.4,4.8-5,5.5-13.1.9-10.9,5.2-17.4,14.1-20.4,10.6-3.5,21.9.4,26.9,15.3,2.1,6.3,2.3,13,1.4,16.7Z" transform="translate(-5.7 -2.2)"/><path class="cls-3" d="M39.8,301c.8,6.8,3.4,11.7,9.1,10.9,3.8-.5,5.4-3,5-5.8a7.12,7.12,0,0,0-6.4-5.9,20.9,20.9,0,0,0-2.5.1Zm22.4-4.6-4.8,1.4.1.2A14.21,14.21,0,0,1,65,309c1.2,8.4-5.2,14.3-12.8,15.3-12.4,1.7-19.7-7.1-21.7-21.6l-.6.1c-2.6.4-6,2-5.1,8.4A21.42,21.42,0,0,0,30,322.1l-9.3,3.7a31.45,31.45,0,0,1-6.4-15.5c-1.9-13.7,6.8-19.4,18.1-21L49,287a78.75,78.75,0,0,0,11.5-2.2Z" transform="translate(-5.7 -2.2)"/><path class="cls-3" d="M33.1,252.4a8.56,8.56,0,0,0-2.8.1c-4,.7-6.8,3-7,6.6-.2,4.7,4.5,8.8,13.2,9.2,7.2.4,13-2.3,13.3-7.8.1-3.3-2.2-6.1-5.8-7.1a12.9,12.9,0,0,0-4-.6Zm-19-14.3c3,.4,7.1.7,14.3,1.1l26.9,1.5c9.2.5,16.8,2.5,21.3,7.4,4.3,4.9,5.4,11.2,5,17.3-.3,5.4-1.9,11.1-4.5,14.7L66,277a23.93,23.93,0,0,0,4.3-11.9c.3-6.1-3.3-11-12.2-11.5l-3.2-.1v.1a12.74,12.74,0,0,1,5.7,11.6c-.5,10.3-10.6,17.1-24.5,16.3-15.6-.8-24.9-10-24.3-20.2a12.07,12.07,0,0,1,7.4-11v-.1l-5.7-.7Z" transform="translate(-5.7 -2.2)"/><path class="cls-3" d="M46.7,209c-1.7,6.6-1.2,12.2,4.4,13.6,3.7.9,6.1-.8,6.8-3.6a7,7,0,0,0-3.7-7.8,13.37,13.37,0,0,0-2.4-.9Zm22.5,4.1-4.9-.4-.1.3A14,14,0,0,1,67,226c-2.1,8.2-10.2,11.3-17.6,9.4-12.2-3.1-15.6-14-12-28.2l-.6-.2c-2.5-.6-6.3-.4-7.9,5.8a21.73,21.73,0,0,0,.7,12l-9.9-.1c-1.2-3.2-2-9.4-.1-16.7,3.4-13.5,13.7-15.4,24.7-12.6l16.3,4.1a74.22,74.22,0,0,0,11.5,2.3Z" transform="translate(-5.7 -2.2)"/><path class="cls-3" d="M44.5,184.1c-6.6-2.8-10.9-4.5-14.8-6l4.4-10.2,8.4,3.1.1-.3c-5.6-4.8-6.3-10.6-4.8-14.3a8.91,8.91,0,0,1,1.3-2.4l13,5.6a11.86,11.86,0,0,0-1.7,3c-1.9,4.4-.4,8.5,3.5,11.2a21,21,0,0,0,3,1.5L79.4,185l-5.1,11.9Z" transform="translate(-5.7 -2.2)"/><polygon class="cls-3" points="40.4 106.8 95.8 143.7 88.6 154.5 33.2 117.6 40.4 106.8"/><path class="cls-3" d="M80.7,117.6c-4.5-4-8.4-7.3-11.6-10.2l7.6-8.3,5.3,4,.1-.1a14.8,14.8,0,0,1,3-14.7c5.8-6.3,14.9-6.6,25.4,3l21.1,19.4-8.7,9.5-19.7-18c-4.6-4.2-9-5.7-12.2-2.2-2.4,2.6-1.7,6.1-.3,8.6a14,14,0,0,0,2.4,2.9l20.6,18.8-8.7,9.6Z" transform="translate(-5.7 -2.2)"/><path class="cls-3" d="M137.7,106.3,114.6,77.1l-4.2,3.4-6.8-8.6,4.2-3.4L106.6,67c-3.6-4.5-6.4-10.6-5.9-16a15.08,15.08,0,0,1,6-10.9,26.14,26.14,0,0,1,6-3.5l6.8,9.4a10.83,10.83,0,0,0-3.7,2.1c-3.3,2.6-2.3,6.8.6,10.4l1.5,1.9,6.6-5.2,6.8,8.7L124.8,69l23.1,29.2Z" transform="translate(-5.7 -2.2)"/><path class="cls-3" d="M152.8,65.5c4.1,7.3,9.7,11.2,14.5,8.5,4.4-2.4,4.3-9.1.1-16.7-3.5-6.3-9.2-11.4-14.3-8.6C147.7,51.8,149.3,59.3,152.8,65.5Zm26-15.2c8.7,15.4,3.2,27.8-6.4,33.3-10.7,6-23.3,2.4-31-11.2s-4.8-26.6,6.8-33.2C159.3,33,171.7,37.7,178.8,50.3Z" transform="translate(-5.7 -2.2)"/><path class="cls-3" d="M183.5,40.8c-2.4-6.7-4.2-11-5.8-14.8l10.5-3.8,3.4,8.2.4-.1c-.4-7.3,3.4-11.8,7.1-13.2a23.77,23.77,0,0,1,2.6-.8l4.8,13.3a14.62,14.62,0,0,0-3.4.8c-4.5,1.7-6.5,5.5-5.7,10.2a14.85,14.85,0,0,0,.9,3.3l8.4,23-12.1,4.5Z" transform="translate(-5.7 -2.2)"/><path class="cls-3" d="M214.7,27.9c-.8-6-1.7-11-2.4-15.3l10.8-1.4,1.4,6.4.2-.1c1.4-3.2,4.4-8.3,11.4-9.2a12,12,0,0,1,12.5,6.6h.1a21.38,21.38,0,0,1,4.5-6.5,14.15,14.15,0,0,1,7.5-3.5c7.9-1.1,14.8,4.6,16.8,18.9L281.3,52,269,53.7l-3.5-26.1c-1-7-3.5-10.7-7.6-10.2-3,.4-4.8,3-5.3,6a17,17,0,0,0,.1,3.9l3.8,28L244,57.1l-3.6-26.9c-.9-6-3.2-9.9-7.3-9.4-3.2.4-4.8,3.7-5.3,6.2a16.1,16.1,0,0,0,0,3.8l3.8,27.9-12.5,1.7Z" transform="translate(-5.7 -2.2)"/><path class="cls-3" d="M309.8,33.3c-6.8-.8-12.2.5-12.8,6.3-.4,3.8,1.6,6,4.5,6.3,3.2.4,6-1.9,7.3-4.8a18.43,18.43,0,0,0,.5-2.5Zm-.9,22.8-.2-4.9h-.3a14.07,14.07,0,0,1-12.5,4.6c-8.4-.9-12.6-8.4-11.8-16.1,1.4-12.5,11.6-17.4,26.2-15.8l.1-.7c.2-2.6-.6-6.3-6.9-7a21.24,21.24,0,0,0-11.8,2.4l-1.4-9.9a31.42,31.42,0,0,1,16.6-2.5c13.8,1.5,17.2,11.4,16,22.7l-1.8,16.7a90.64,90.64,0,0,0-.6,11.7Z" transform="translate(-5.7 -2.2)"/><path class="cls-3" d="M355,2.4l-3.5,13.4,9,2.4-2.9,10.7-8.9-2.4-4.5,16.8c-1.5,5.7-1.1,8.6,2.7,9.6a24,24,0,0,0,3.8.6l-2.9,11a23.09,23.09,0,0,1-8.4-.9,13,13,0,0,1-8.4-6.5c-1.5-3.4-1.5-8.2.2-14.8l5.1-19.2-5.4-1.4L333.8,11l5.3,1.4,2.7-10.2H355Z" transform="translate(-5.7 -2.2)"/><path class="cls-3" d="M386.9,13.8c-1.5,3.9-5.3,6-9.2,4.5s-5.1-5.5-3.5-9.4,5.2-6.1,9.1-4.6S388.5,9.8,386.9,13.8ZM352.2,66.6l17.5-45.1,12,4.7L364.2,71.3Z" transform="translate(-5.7 -2.2)"/><path class="cls-3" d="M398.6,87.7c-2.6-.1-6.8-1.4-11.2-3.7-11.8-6.5-14.7-19-7.3-32.3,6.8-12.4,19.8-18.4,33.3-10.9a25.81,25.81,0,0,1,7.7,6.4L413.9,56a15.56,15.56,0,0,0-5.6-4.8c-6-3.3-12.5-.5-16.3,6.5-4.3,7.8-2.2,14.3,3.4,17.4a17.61,17.61,0,0,0,7.2,2.3Z" transform="translate(-5.7 -2.2)"/><path class="cls-3" d="M408.5,79.9a23.71,23.71,0,0,0,6.7,9.6c3.2,2.3,5.4,2,6.9.1s1.2-3.7-1.6-8.1c-4.8-7.8-4.2-14.2-.7-18.7,5.4-7.1,14.8-8.6,23-2.4a24.72,24.72,0,0,1,7.7,9.3l-8.1,6.9a18.26,18.26,0,0,0-5.5-7.6c-2.5-1.9-4.8-1.8-6.3.2-1.4,1.8-.8,3.7,2.1,8.4,4.4,7.3,4.2,13,0,18.7-5.4,7.2-14.3,8.8-23.8,1.7a25.49,25.49,0,0,1-8.7-10.8Z" transform="translate(-5.7 -2.2)"/><path class="cls-3" d="M473.3,108.5a17.11,17.11,0,0,0,2.4,3.6c4.3,5.4,10.2,6.2,15.4,1.9,4.8-3.8,5.3-9,1.3-14a19.88,19.88,0,0,0-3.8-3.7Zm15.5-28.9a90.13,90.13,0,0,1,12.1,12.7c5,6.3,7.2,11.8,6.8,17a21.16,21.16,0,0,1-8.2,14.5c-5,4.1-10.5,6-15.6,5.8-6.6-.4-12.3-4.1-17.1-10.1a26.82,26.82,0,0,1-2.5-3.7l-18.6,15-8.1-10Z" transform="translate(-5.7 -2.2)"/><path class="cls-3" d="M512.2,141.9l-17.3,15.3c-3.1,2.8-6.2,5.3-9.3,7.6l.1.3c3.8-1.2,7.4-2.4,11.5-3.5l22.3-5.6,6.3,12-50,8.7-6-11.4,35.8-35.9Z" transform="translate(-5.7 -2.2)"/><path class="cls-3" d="M546.4,186.1l-13.1,4.5,3,8.8-10.5,3.5-3-8.8-16.6,5.7c-5.5,1.9-7.7,3.8-6.4,7.6a16.76,16.76,0,0,0,1.6,3.5l-10.7,3.7a24.67,24.67,0,0,1-4-7.6c-1.3-4-.9-7.8.9-10.5,1.9-3.2,5.9-5.8,12.4-8l18.7-6.3-1.8-5.3,10.5-3.6,1.7,5.3,9.9-3.4Z" transform="translate(-5.7 -2.2)"/><path class="cls-3" d="M498.8,216.2c5.3-1.2,9.7,1,10.7,5.4s-1.9,8.2-7.3,9.4c-5.1,1.2-9.5-.9-10.5-5.5C490.7,221.2,493.7,217.3,498.8,216.2Z" transform="translate(-5.7 -2.2)"/><polygon class="cls-3" points="558.5 248.9 558.8 261.9 504.9 263 505.3 285.8 492.6 286 491.9 250.2 558.5 248.9"/><path class="cls-3" d="M557.3,313.4l-13.8-1.8-1.2,9.2-10.9-1.4,1.2-9.2-17.4-2.3c-5.8-.7-8.6.1-9.1,4-.1,1.6-.1,2.9-.1,3.9l-11.3-1.4a23.2,23.2,0,0,1-.1-8.5,12.71,12.71,0,0,1,5.4-9.1c3.1-2,7.8-2.6,14.6-1.7l19.7,2.5.7-5.5,10.9,1.4-.7,5.5,10.4,1.4Z" transform="translate(-5.7 -2.2)"/><path class="cls-3" d="M513.1,351.4c.7.2,1.8.4,2.6.6,4.1.5,8.1-1.2,9.3-5,1.7-5.6-3.2-10.4-10.5-12.6-7.8-2.4-13.8-.5-15.3,4.6-1.1,3.6.9,7.3,4.7,9.3a23.69,23.69,0,0,0,3.2,1.3Zm36.6,24.7-53.3-16.3c-5.2-1.6-10.7-3.1-13.9-3.9l3.3-11,7,1.5.1-.1a14.07,14.07,0,0,1-4-14.8c2.9-9.4,14.5-14.2,28.9-9.8,15.6,4.8,22,15.8,19.1,25.3-1.5,4.9-4.6,8.1-8.4,8.9v.1l25.1,7.7Z" transform="translate(-5.7 -2.2)"/><path class="cls-3" d="M487.2,363.1c4.8,2.3,7,6.8,5,10.9s-6.6,5.3-11.5,3-6.9-6.7-5-10.8S482.6,360.9,487.2,363.1Z" transform="translate(-5.7 -2.2)"/><circle class="cls-4" cx="544" cy="408.9" r="17.4"/><text class="cls-5" transform="translate(532.73 418.37)">R</text></g></svg>