<svg xmlns="http://www.w3.org/2000/svg" width="938" height="938" viewBox="0 0 938 938" version="1.1"><path d="M 462.687 204.805 C 461.209 206.347, 460 208.041, 460 208.569 C 460 209.096, 465.970 215.486, 473.267 222.768 L 486.534 236.007 495.475 227.025 L 504.415 218.043 501.504 215.004 L 498.593 211.966 493.023 217.477 L 487.453 222.989 476.994 212.494 C 471.242 206.723, 466.274 202, 465.955 202 C 465.636 202, 464.165 203.262, 462.687 204.805 M 438.979 228.522 L 435.566 232.043 444.511 250.022 C 449.430 259.910, 453.669 268, 453.930 268 C 454.191 268, 455.855 266.594, 457.627 264.877 C 460.837 261.765, 460.844 261.740, 459.224 258.343 L 457.597 254.932 461.819 250.716 L 466.041 246.500 469.198 248.306 L 472.356 250.111 475.878 246.589 C 477.815 244.652, 479.197 242.877, 478.950 242.646 C 478.060 241.813, 444.003 225, 443.207 225 C 442.759 225, 440.856 226.585, 438.979 228.522 M 450.537 242.073 L 453.143 247.215 455.571 244.933 C 456.907 243.678, 458 242.512, 458 242.343 C 458 242.173, 455.735 240.886, 452.966 239.483 L 447.932 236.932 450.537 242.073 M 415.471 252.030 L 412.569 255.060 426.255 268.745 L 439.940 282.431 442.970 279.529 C 444.637 277.932, 446 276.141, 446 275.548 C 446 274.161, 420.812 249, 419.423 249 C 418.846 249, 417.068 250.363, 415.471 252.030 M 397.256 270.645 C 395.472 271.524, 392.459 273.963, 390.560 276.065 C 383.109 284.313, 383.789 293.919, 392.435 302.565 C 401.089 311.219, 410.687 311.891, 418.954 304.423 C 425.783 298.253, 427.613 291.450, 424.308 284.519 L 422.615 280.970 418.890 284.607 C 415.688 287.734, 415.241 288.708, 415.702 291.549 C 416.130 294.190, 415.722 295.369, 413.664 297.427 C 412.181 298.910, 409.956 300, 408.413 300 C 402.635 300, 395 292.474, 395 286.778 C 395 285.411, 396.154 283.047, 397.564 281.526 C 399.669 279.255, 400.721 278.855, 403.442 279.297 C 406.294 279.760, 407.262 279.316, 410.393 276.110 L 414.030 272.385 410.481 270.692 C 406.060 268.584, 401.470 268.567, 397.256 270.645 M 363.500 304.896 C 356.270 308.243, 350.974 316.020, 351.022 323.218 C 351.089 333.268, 362.185 344, 372.508 344 C 382.842 344, 393.041 332.424, 391.537 322.400 C 390.361 314.559, 382.833 306.160, 375.041 303.995 C 370.085 302.618, 368.083 302.774, 363.500 304.896 M 363.646 315.452 C 357.017 321.596, 363.938 334, 373.996 334 C 377.956 334, 382.001 330.104, 381.996 326.295 C 381.988 320.335, 374.771 313.012, 368.896 313.004 C 367.464 313.002, 365.101 314.104, 363.646 315.452 M 329.058 339.193 C 318.913 344.462, 315.340 354.570, 321.391 360.886 C 326.133 365.835, 329.006 365.846, 338.487 360.948 C 346.944 356.580, 350 356.296, 350 359.880 C 350 361.796, 344.780 367, 342.858 367 C 342.314 367, 341.068 366.572, 340.090 366.048 C 338.678 365.292, 337.534 365.892, 334.538 368.961 L 330.764 372.826 333.832 374.413 C 339.846 377.523, 347.094 375.934, 353.339 370.136 C 357.297 366.462, 359 362.796, 359 357.950 C 359 354.534, 358.376 353.176, 355.473 350.273 C 352.269 347.069, 351.546 346.791, 347.575 347.239 C 345.008 347.528, 340.734 349.232, 337.221 351.366 C 330.601 355.387, 328.526 355.813, 327.579 353.345 C 326.532 350.618, 330.757 347, 334.987 347 C 337.728 347, 339.338 346.257, 341.513 343.986 C 344.034 341.355, 344.216 340.789, 342.950 339.532 C 340.212 336.814, 333.936 336.660, 329.058 339.193 M 529.852 367.911 C 516.202 373.250, 506.895 385.169, 506.155 398.258 C 505.479 410.218, 505.933 410.797, 548.772 452.645 C 569.523 472.915, 586.616 489.736, 586.758 490.025 C 586.900 490.314, 569.516 506.825, 548.126 526.717 C 504.774 567.031, 504.321 567.573, 505.260 577.926 C 506.760 594.468, 523.526 610.403, 539.500 610.468 C 544.245 610.488, 546.462 609.928, 550.098 607.793 C 552.627 606.308, 580.077 580.499, 611.098 550.438 C 642.119 520.378, 668.774 494.549, 670.331 493.041 L 673.163 490.299 613.529 430.213 C 571.667 388.034, 552.625 369.513, 549.632 368.064 C 544.301 365.483, 536.220 365.421, 529.852 367.911 M 456.500 419.388 C 452.251 421.242, 446.334 428.154, 444.900 432.938 C 442.590 440.649, 443.746 442.320, 468.317 466.799 L 490.699 489.097 476.106 502.799 C 444.885 532.112, 444 533.077, 444 537.835 C 444 540.170, 444.873 543.792, 445.941 545.885 C 448.093 550.102, 453.892 555.628, 457.676 557.067 C 461.618 558.566, 467.275 558.135, 470.358 556.102 C 472.947 554.396, 525.307 504.487, 535.894 493.635 L 540.289 489.130 520.394 468.502 C 509.452 457.156, 493.421 441.152, 484.769 432.937 L 469.038 418 464.269 418.039 C 461.646 418.061, 458.150 418.667, 456.500 419.388" stroke="none" fill="#e39b3c" fill-rule="evenodd"/><path d="M 517.618 243.045 C 505.914 245.995, 508.460 243.579, 382.287 371.395 C 268.116 487.053, 262.975 492.416, 264.698 494.073 C 265.689 495.026, 319.375 547.213, 384 610.044 C 452.886 677.018, 503.879 725.838, 507.251 728.042 C 525.615 740.046, 552.707 734.430, 574.223 714.159 C 583.251 705.655, 588.293 698.804, 593.017 688.627 C 598.819 676.128, 600.288 666.106, 597.932 655.118 C 595.911 645.694, 590.520 638.714, 571.867 621.368 L 554.500 605.220 550 607.856 C 546.469 609.925, 544.208 610.487, 539.500 610.468 C 518.707 610.383, 498.881 584.272, 506.951 567.601 L 509.164 563.030 500.832 555.152 C 496.249 550.819, 491.005 546.020, 489.177 544.487 L 485.854 541.699 479.177 548.206 C 470.584 556.581, 468.363 558, 463.843 558 C 458.901 558, 455.961 556.783, 451.552 552.912 C 446.787 548.728, 444.001 543.152, 443.996 537.790 C 443.992 533.720, 444.415 533.095, 452.230 525.610 L 460.469 517.721 446.984 504.830 L 433.500 491.940 448.766 477.215 L 464.032 462.490 454.986 453.495 C 444.646 443.213, 442.893 439.639, 444.900 432.938 C 446.373 428.023, 452.314 421.191, 456.718 419.347 C 458.488 418.606, 462.038 418, 464.608 418 C 469.169 418, 469.514 418.229, 479.084 427.632 L 488.887 437.263 499.943 426.963 C 506.025 421.298, 511 416.446, 511 416.181 C 511 415.916, 509.824 413.296, 508.387 410.358 C 501.563 396.410, 509.989 377.554, 526.717 369.340 C 531.524 366.979, 533.778 366.500, 540.073 366.500 C 546.747 366.500, 548.164 366.843, 552.008 369.387 L 556.370 372.273 572.014 356.387 C 586.128 342.054, 588.091 339.627, 592.079 331.575 L 596.500 322.651 596.465 310.075 C 596.433 298.872, 596.140 296.769, 593.780 290.803 C 585.461 269.779, 567.417 252.298, 546.439 244.939 C 539.616 242.546, 523.740 241.502, 517.618 243.045 M 292.092 376.059 L 277.684 390.021 279.748 397.510 C 281.163 402.648, 281.448 404.998, 280.656 404.992 C 280.020 404.988, 276.584 404.098, 273.020 403.014 L 266.539 401.044 262.771 404.723 C 260.699 406.747, 259.340 408.697, 259.751 409.057 C 260.163 409.417, 266.125 411.164, 273 412.939 C 285.215 416.093, 285.626 416.290, 291.042 421.596 L 296.583 427.025 299.998 423.502 L 303.412 419.980 297.994 414.494 C 292.737 409.171, 292.481 408.647, 289.405 396.940 L 286.235 384.872 288.648 387.139 L 291.061 389.406 294.764 385.703 L 298.467 382 309.215 392.714 L 319.963 403.429 323.500 400 L 327.038 396.571 316.301 385.801 L 305.564 375.030 309.293 371.212 L 313.021 367.394 310.206 364.697 C 308.657 363.214, 307.190 362.022, 306.945 362.049 C 306.700 362.075, 300.016 368.380, 292.092 376.059 M 244.476 423.025 L 241.577 426.051 255.529 440.029 L 269.480 454.007 278.477 445.010 L 287.474 436.012 284.245 432.783 L 281.015 429.553 275.499 435.001 L 269.984 440.448 259.725 430.224 C 254.082 424.601, 248.995 420, 248.420 420 C 247.845 420, 246.070 421.361, 244.476 423.025 M 229.233 438.266 L 220.005 447.532 233.977 461.477 L 247.949 475.423 250.975 472.524 C 252.639 470.930, 254 469.131, 254 468.525 C 254 467.920, 251.749 465.207, 248.997 462.497 L 243.994 457.569 249.198 452.299 L 254.402 447.030 251.499 443.999 L 248.595 440.968 243.294 446.203 L 237.994 451.438 235.776 449.221 L 233.559 447.004 239.482 441.018 L 245.405 435.032 242.516 432.016 C 240.926 430.357, 239.364 429, 239.043 429 C 238.723 429, 234.308 433.170, 229.233 438.266" stroke="none" fill="#0c545b" fill-rule="evenodd"/></svg>